<svg xmlns="http://www.w3.org/2000/svg" xmlns:xlink="http://www.w3.org/1999/xlink" width="500" zoomAndPan="magnify" viewBox="0 0 375 374.999991" height="500" preserveAspectRatio="xMidYMid meet" version="1.0"><defs><g/><clipPath id="7dc7195da3"><path d="M 2.929688 2.929688 L 372.070312 2.929688 L 372.070312 372.070312 L 2.929688 372.070312 Z M 2.929688 2.929688 " clip-rule="nonzero"/></clipPath><clipPath id="630be4be20"><path d="M 187.5 2.929688 C 85.566406 2.929688 2.929688 85.566406 2.929688 187.5 C 2.929688 289.433594 85.566406 372.070312 187.5 372.070312 C 289.433594 372.070312 372.070312 289.433594 372.070312 187.5 C 372.070312 85.566406 289.433594 2.929688 187.5 2.929688 " clip-rule="nonzero"/></clipPath></defs><path fill="#000000" d="M 187.5 375 C 84.113281 375 0 290.886719 0 187.5 C 0 84.113281 84.113281 0 187.5 0 C 290.886719 0 375 84.113281 375 187.5 C 375 290.886719 290.886719 375 187.5 375 Z M 187.5 3.324219 C 85.945312 3.324219 3.324219 85.945312 3.324219 187.5 C 3.324219 289.054688 85.945312 371.675781 187.5 371.675781 C 289.054688 371.675781 371.675781 289.054688 371.675781 187.5 C 371.675781 85.945312 289.054688 3.324219 187.5 3.324219 Z M 187.5 3.324219 " fill-opacity="1" fill-rule="nonzero"/><g clip-path="url(#7dc7195da3)"><g clip-path="url(#630be4be20)"><path fill="#cbcbcb" d="M 2.929688 2.929688 L 372.070312 2.929688 L 372.070312 372.070312 L 2.929688 372.070312 Z M 2.929688 2.929688 " fill-opacity="1" fill-rule="nonzero"/></g></g><g fill="#000000" fill-opacity="1"><g transform="translate(191.300317, 184.430453)"><g/></g></g><g fill="#000000" fill-opacity="1"><g transform="translate(191.300317, 197.930452)"><g/></g></g><g fill="#000000" fill-opacity="1"><g transform="translate(74.49335, 235.36374)"><g><path d="M 90.625 -2.875 L 90.625 0 L 20.125 0 L 20.125 -105.90625 L 88.359375 -105.90625 L 88.359375 -103.03125 L 23.140625 -103.03125 L 23.140625 -55.21875 L 81.546875 -55.21875 L 81.546875 -52.34375 L 23.140625 -52.34375 L 23.140625 -2.875 Z M 90.625 -2.875 "/></g></g></g><g fill="#000000" fill-opacity="1"><g transform="translate(175.542943, 235.36374)"><g><path d="M 20.125 -105.90625 L 60.21875 -105.90625 C 71.207031 -105.90625 80.910156 -103.632812 89.328125 -99.09375 C 97.753906 -94.5625 104.3125 -88.257812 109 -80.1875 C 113.695312 -72.113281 116.046875 -63.035156 116.046875 -52.953125 C 116.046875 -42.867188 113.695312 -33.789062 109 -25.71875 C 104.3125 -17.644531 97.753906 -11.335938 89.328125 -6.796875 C 80.910156 -2.265625 71.207031 0 60.21875 0 L 20.125 0 Z M 59.90625 -2.875 C 70.5 -2.875 79.804688 -5.015625 87.828125 -9.296875 C 95.847656 -13.585938 102.050781 -19.539062 106.4375 -27.15625 C 110.820312 -34.769531 113.015625 -43.367188 113.015625 -52.953125 C 113.015625 -62.535156 110.820312 -71.132812 106.4375 -78.75 C 102.050781 -86.363281 95.847656 -92.3125 87.828125 -96.59375 C 79.804688 -100.882812 70.5 -103.03125 59.90625 -103.03125 L 23.140625 -103.03125 L 23.140625 -2.875 Z M 59.90625 -2.875 "/></g></g></g><g fill="#000000" fill-opacity="1"><g transform="translate(91.261355, 326.046266)"><g><path d="M 3.921875 2.421875 L 1.71875 1.0625 L 9.78125 -12 L 11.984375 -10.640625 Z M 3.921875 2.421875 "/></g></g></g><g fill="#000000" fill-opacity="1"><g transform="translate(112.902661, 338.080607)"><g><path d="M 14.25 5.640625 L 11.890625 4.703125 L 8.328125 -8.53125 L 4.28125 1.703125 L 1.875 0.734375 L 7.515625 -13.53125 L 9.890625 -12.59375 L 13.484375 0.6875 L 17.53125 -9.5625 L 19.890625 -8.625 Z M 14.25 5.640625 "/></g></g></g><g fill="#000000" fill-opacity="1"><g transform="translate(146.786561, 349.391948)"><g><path d="M 13.609375 -5.3125 L 15.84375 -4.9375 L 14.875 0.640625 C 14 1.097656 13 1.414062 11.875 1.59375 C 10.757812 1.769531 9.691406 1.769531 8.671875 1.59375 C 6.441406 1.21875 4.6875 0.160156 3.40625 -1.578125 C 2.125 -3.328125 1.664062 -5.28125 2.03125 -7.4375 C 2.40625 -9.59375 3.492188 -11.269531 5.296875 -12.46875 C 7.109375 -13.664062 9.160156 -14.066406 11.453125 -13.671875 C 12.515625 -13.484375 13.523438 -13.109375 14.484375 -12.546875 C 15.441406 -11.992188 16.242188 -11.332031 16.890625 -10.5625 L 15.125 -8.9375 C 14.082031 -10.289062 12.726562 -11.113281 11.0625 -11.40625 C 9.519531 -11.664062 8.125 -11.367188 6.875 -10.515625 C 5.632812 -9.660156 4.882812 -8.484375 4.625 -6.984375 C 4.363281 -5.472656 4.679688 -4.109375 5.578125 -2.890625 C 6.472656 -1.671875 7.691406 -0.929688 9.234375 -0.671875 C 10.398438 -0.460938 11.613281 -0.601562 12.875 -1.09375 Z M 13.609375 -5.3125 "/></g></g></g><g fill="#000000" fill-opacity="1"><g transform="translate(181.257507, 353.376442)"><g><path d="M 12.625 -13.375 L 4.25 -13.140625 L 4.359375 -9 L 11.84375 -9.203125 L 11.921875 -6.875 L 4.4375 -6.671875 L 4.546875 -2.453125 L 13.171875 -2.6875 L 13.234375 -0.359375 L 2.015625 -0.0625 L 1.59375 -15.40625 L 12.5625 -15.703125 Z M 12.625 -13.375 "/></g></g></g><g fill="#000000" fill-opacity="1"><g transform="translate(213.857045, 350.795301)"><g><path d="M 14.9375 -3.46875 L 12.453125 -2.890625 L 2 -11.765625 L 4.484375 -1.046875 L 1.96875 -0.453125 L -1.5 -15.40625 L 0.96875 -15.984375 L 11.484375 -7.09375 L 8.984375 -17.84375 L 11.46875 -18.421875 Z M 14.9375 -3.46875 "/></g></g></g><g fill="#000000" fill-opacity="1"><g transform="translate(247.867302, 340.784373)"><g><path d="M 4.234375 -1.8125 L 1.859375 -0.796875 L -4.171875 -14.90625 L -1.796875 -15.921875 Z M 4.234375 -1.8125 "/></g></g></g><g fill="#000000" fill-opacity="1"><g transform="translate(270.181483, 330.021191)"><g><path d="M -4.65625 -12.703125 C -4.164062 -14.804688 -2.960938 -16.488281 -1.046875 -17.75 C 0.859375 -19.007812 2.875 -19.453125 5 -19.078125 C 7.132812 -18.703125 8.800781 -17.597656 10 -15.765625 C 11.207031 -13.941406 11.566406 -11.96875 11.078125 -9.84375 C 10.585938 -7.726562 9.382812 -6.039062 7.46875 -4.78125 C 5.5625 -3.519531 3.539062 -3.085938 1.40625 -3.484375 C -0.71875 -3.878906 -2.378906 -4.988281 -3.578125 -6.8125 C -4.785156 -8.644531 -5.144531 -10.609375 -4.65625 -12.703125 Z M 0.234375 -15.828125 C -1.035156 -14.992188 -1.832031 -13.84375 -2.15625 -12.375 C -2.488281 -10.90625 -2.238281 -9.535156 -1.40625 -8.265625 C -0.570312 -6.992188 0.585938 -6.21875 2.078125 -5.9375 C 3.578125 -5.65625 4.953125 -5.925781 6.203125 -6.75 C 7.460938 -7.570312 8.25 -8.71875 8.5625 -10.1875 C 8.875 -11.65625 8.613281 -13.023438 7.78125 -14.296875 C 6.945312 -15.566406 5.789062 -16.34375 4.3125 -16.625 C 2.84375 -16.914062 1.484375 -16.648438 0.234375 -15.828125 Z M 0.234375 -15.828125 "/></g></g></g><g fill="#000000" fill-opacity="1"><g transform="translate(29.951625, 223.13681)"><g><path d="M -14.453125 -11.359375 L -13.46875 -3.046875 L -9.359375 -3.53125 L -10.234375 -10.96875 L -7.921875 -11.25 L -7.046875 -3.8125 L -2.859375 -4.296875 L -3.875 -12.859375 L -1.5625 -13.140625 L -0.234375 -2 L -15.46875 -0.203125 L -16.765625 -11.09375 Z M -14.453125 -11.359375 "/></g></g></g><g fill="#000000" fill-opacity="1"><g transform="translate(27.840645, 193.707818)"><g><path d="M 0.84375 -11.71875 L -3.984375 -9.25 C -3.984375 -9.101562 -3.992188 -8.875 -4.015625 -8.5625 L -4.28125 -4.921875 L 0.328125 -4.59375 L 0.140625 -2.015625 L -15.15625 -3.125 L -14.703125 -9.34375 C -14.566406 -11.289062 -14.003906 -12.769531 -13.015625 -13.78125 C -12.035156 -14.789062 -10.710938 -15.238281 -9.046875 -15.125 C -7.828125 -15.03125 -6.8125 -14.675781 -6 -14.0625 C -5.1875 -13.457031 -4.617188 -12.632812 -4.296875 -11.59375 L 1.0625 -14.65625 Z M -6.609375 -5.09375 L -6.34375 -8.734375 C -6.164062 -11.203125 -7.101562 -12.507812 -9.15625 -12.65625 C -11.132812 -12.800781 -12.210938 -11.640625 -12.390625 -9.171875 L -12.65625 -5.53125 Z M -6.609375 -5.09375 "/></g></g></g><g fill="#000000" fill-opacity="1"><g transform="translate(31.725382, 162.811324)"><g><path d="M 1.09375 -4.484375 L 0.46875 -1.953125 L -14.4375 -5.578125 L -13.8125 -8.109375 Z M 1.09375 -4.484375 "/></g></g></g><g fill="#000000" fill-opacity="1"><g transform="translate(37.799437, 141.715937)"><g><path d="M -10.71875 -14.15625 C -10.289062 -15.144531 -9.679688 -16.03125 -8.890625 -16.8125 C -8.097656 -17.601562 -7.21875 -18.195312 -6.25 -18.59375 L -5.109375 -16.453125 C -5.878906 -16.179688 -6.570312 -15.757812 -7.1875 -15.1875 C -7.8125 -14.625 -8.273438 -13.988281 -8.578125 -13.28125 C -9.179688 -11.863281 -9.207031 -10.46875 -8.65625 -9.09375 C -8.113281 -7.71875 -7.148438 -6.734375 -5.765625 -6.140625 C -4.367188 -5.546875 -2.976562 -5.523438 -1.59375 -6.078125 C -0.21875 -6.640625 0.769531 -7.628906 1.375 -9.046875 C 2 -10.515625 1.992188 -12.066406 1.359375 -13.703125 L 3.546875 -14.4375 C 3.941406 -13.40625 4.140625 -12.316406 4.140625 -11.171875 C 4.148438 -10.023438 3.941406 -8.957031 3.515625 -7.96875 C 2.628906 -5.90625 1.203125 -4.460938 -0.765625 -3.640625 C -2.742188 -2.816406 -4.742188 -2.835938 -6.765625 -3.703125 C -8.773438 -4.554688 -10.15625 -5.988281 -10.90625 -8 C -11.664062 -10.019531 -11.601562 -12.070312 -10.71875 -14.15625 Z M -10.71875 -14.15625 "/></g></g></g><g fill="#000000" fill-opacity="1"><g transform="translate(51.030316, 114.370571)"><g><path d="M 6.875 -10.140625 L -1.5625 -9.78125 L -0.640625 -6 L 2.59375 -3.8125 L 1.125 -1.671875 L -11.578125 -10.28125 L -10.109375 -12.421875 L -3.53125 -7.96875 L -6.015625 -18.484375 L -4.296875 -21 L -2.21875 -12.40625 L 8.625 -12.71875 Z M 6.875 -10.140625 "/></g></g></g><g fill="#000000" fill-opacity="1"><g transform="translate(69.803278, 89.636847)"><g/></g></g><g fill="#000000" fill-opacity="1"><g transform="translate(84.81956, 74.978608)"><g><path d="M -7.609375 -13.46875 L -2.578125 -17.265625 C -0.742188 -18.640625 1.203125 -19.195312 3.265625 -18.9375 C 5.335938 -18.6875 7.039062 -17.671875 8.375 -15.890625 C 9.707031 -14.117188 10.207031 -12.203125 9.875 -10.140625 C 9.539062 -8.078125 8.445312 -6.347656 6.59375 -4.953125 L 1.609375 -1.203125 Z M -4.125 -13.171875 L 2.28125 -4.625 L 5.28125 -6.890625 C 6.488281 -7.796875 7.191406 -8.945312 7.390625 -10.34375 C 7.597656 -11.75 7.238281 -13.066406 6.3125 -14.296875 C 5.382812 -15.535156 4.203125 -16.253906 2.765625 -16.453125 C 1.335938 -16.648438 0.015625 -16.289062 -1.203125 -15.375 Z M -4.125 -13.171875 "/></g></g></g><g fill="#000000" fill-opacity="1"><g transform="translate(111.602282, 57.025608)"><g><path d="M 4.09375 -2.109375 L 1.796875 -0.921875 L -5.21875 -14.578125 L -2.921875 -15.765625 Z M 4.09375 -2.109375 "/></g></g></g><g fill="#000000" fill-opacity="1"><g transform="translate(131.583886, 47.835902)"><g><path d="M 1.9375 -16.890625 C 3.820312 -17.503906 5.6875 -17.550781 7.53125 -17.03125 L 7.21875 -14.546875 C 5.4375 -14.953125 3.859375 -14.9375 2.484375 -14.5 C 1.753906 -14.257812 1.21875 -13.9375 0.875 -13.53125 C 0.539062 -13.132812 0.453125 -12.691406 0.609375 -12.203125 C 0.765625 -11.722656 1.09375 -11.375 1.59375 -11.15625 C 2.09375 -10.945312 2.660156 -10.859375 3.296875 -10.890625 C 3.941406 -10.921875 4.644531 -10.925781 5.40625 -10.90625 C 6.164062 -10.882812 6.878906 -10.832031 7.546875 -10.75 C 8.222656 -10.664062 8.84375 -10.394531 9.40625 -9.9375 C 9.96875 -9.488281 10.382812 -8.851562 10.65625 -8.03125 C 11.070312 -6.757812 10.894531 -5.570312 10.125 -4.46875 C 9.351562 -3.363281 8.160156 -2.546875 6.546875 -2.015625 C 5.421875 -1.648438 4.269531 -1.507812 3.09375 -1.59375 C 1.914062 -1.6875 0.820312 -1.957031 -0.1875 -2.40625 L 0.1875 -4.875 C 1.144531 -4.425781 2.125 -4.164062 3.125 -4.09375 C 4.132812 -4.019531 5.035156 -4.109375 5.828125 -4.359375 C 6.691406 -4.640625 7.304688 -5.015625 7.671875 -5.484375 C 8.046875 -5.953125 8.144531 -6.460938 7.96875 -7.015625 C 7.800781 -7.515625 7.46875 -7.875 6.96875 -8.09375 C 6.476562 -8.3125 5.914062 -8.398438 5.28125 -8.359375 C 4.644531 -8.328125 3.945312 -8.316406 3.1875 -8.328125 C 2.4375 -8.335938 1.726562 -8.375 1.0625 -8.4375 C 0.40625 -8.507812 -0.210938 -8.765625 -0.796875 -9.203125 C -1.378906 -9.648438 -1.800781 -10.28125 -2.0625 -11.09375 C -2.46875 -12.320312 -2.300781 -13.460938 -1.5625 -14.515625 C -0.832031 -15.578125 0.332031 -16.367188 1.9375 -16.890625 Z M 1.9375 -16.890625 "/></g></g></g><g fill="#000000" fill-opacity="1"><g transform="translate(159.413662, 40.254854)"><g><path d="M 10.625 -14.59375 L 5.78125 -13.921875 L 7.546875 -1.03125 L 5 -0.6875 L 3.234375 -13.578125 L -1.5625 -12.921875 L -1.875 -15.234375 L 10.3125 -16.90625 Z M 10.625 -14.59375 "/></g></g></g><g fill="#000000" fill-opacity="1"><g transform="translate(187.156892, 37.719893)"><g><path d="M 11.734375 0.578125 L 9.140625 -4.203125 C 8.992188 -4.203125 8.765625 -4.207031 8.453125 -4.21875 L 4.828125 -4.40625 L 4.609375 0.21875 L 2.015625 0.09375 L 2.765625 -15.234375 L 8.984375 -14.921875 C 10.941406 -14.828125 12.4375 -14.296875 13.46875 -13.328125 C 14.5 -12.367188 14.972656 -11.054688 14.890625 -9.390625 C 14.835938 -8.160156 14.515625 -7.132812 13.921875 -6.3125 C 13.335938 -5.5 12.523438 -4.921875 11.484375 -4.578125 L 14.671875 0.71875 Z M 4.953125 -6.71875 L 8.578125 -6.53125 C 11.054688 -6.414062 12.34375 -7.390625 12.4375 -9.453125 C 12.53125 -11.429688 11.335938 -12.476562 8.859375 -12.59375 L 5.234375 -12.78125 Z M 4.953125 -6.71875 "/></g></g></g><g fill="#000000" fill-opacity="1"><g transform="translate(218.130054, 40.885967)"><g><path d="M 4.5 0.984375 L 1.96875 0.4375 L 5.25 -14.546875 L 7.78125 -14 Z M 4.5 0.984375 "/></g></g></g><g fill="#000000" fill-opacity="1"><g transform="translate(239.366859, 46.45303)"><g><path d="M 7.578125 -13.5 L 13.765625 -11.015625 C 15.242188 -10.429688 16.285156 -9.648438 16.890625 -8.671875 C 17.492188 -7.703125 17.570312 -6.660156 17.125 -5.546875 C 16.800781 -4.742188 16.300781 -4.148438 15.625 -3.765625 C 14.957031 -3.378906 14.195312 -3.25 13.34375 -3.375 C 14.226562 -2.832031 14.8125 -2.132812 15.09375 -1.28125 C 15.382812 -0.425781 15.335938 0.484375 14.953125 1.453125 C 14.460938 2.671875 13.617188 3.441406 12.421875 3.765625 C 11.222656 4.085938 9.816406 3.925781 8.203125 3.28125 L 1.875 0.75 Z M 9.125 -10.390625 L 7.625 -6.625 L 11.28125 -5.171875 C 12.039062 -4.859375 12.707031 -4.785156 13.28125 -4.953125 C 13.851562 -5.117188 14.257812 -5.5 14.5 -6.09375 C 14.738281 -6.695312 14.703125 -7.242188 14.390625 -7.734375 C 14.085938 -8.222656 13.550781 -8.625 12.78125 -8.9375 Z M 6.765625 -4.5 L 5.140625 -0.40625 L 8.796875 1.046875 C 9.742188 1.429688 10.546875 1.546875 11.203125 1.390625 C 11.867188 1.234375 12.335938 0.828125 12.609375 0.171875 C 12.859375 -0.460938 12.789062 -1.0625 12.40625 -1.625 C 12.019531 -2.195312 11.359375 -2.671875 10.421875 -3.046875 Z M 6.765625 -4.5 "/></g></g></g><g fill="#000000" fill-opacity="1"><g transform="translate(267.173449, 59.103684)"><g><path d="M 20.984375 -4.65625 L 16.09375 2.875 C 15 4.550781 13.640625 5.550781 12.015625 5.875 C 10.398438 6.207031 8.71875 5.804688 6.96875 4.671875 C 5.226562 3.535156 4.171875 2.15625 3.796875 0.53125 C 3.429688 -1.082031 3.796875 -2.726562 4.890625 -4.40625 L 9.78125 -11.9375 L 11.96875 -10.515625 L 7.078125 -2.984375 C 6.367188 -1.898438 6.125 -0.851562 6.34375 0.15625 C 6.5625 1.175781 7.203125 2.035156 8.265625 2.734375 C 9.304688 3.410156 10.332031 3.640625 11.34375 3.421875 C 12.351562 3.210938 13.210938 2.5625 13.921875 1.46875 L 18.8125 -6.0625 Z M 20.984375 -4.65625 "/></g></g></g><g fill="#000000" fill-opacity="1"><g transform="translate(292.976744, 77.717791)"><g><path d="M 17.0625 -4.90625 C 17.84375 -4.144531 18.457031 -3.253906 18.90625 -2.234375 C 19.351562 -1.210938 19.582031 -0.179688 19.59375 0.859375 L 17.1875 1.15625 C 17.207031 0.34375 17.066406 -0.453125 16.765625 -1.234375 C 16.460938 -2.015625 16.035156 -2.675781 15.484375 -3.21875 C 14.378906 -4.289062 13.082031 -4.816406 11.59375 -4.796875 C 10.113281 -4.785156 8.847656 -4.242188 7.796875 -3.171875 C 6.742188 -2.078125 6.226562 -0.789062 6.25 0.6875 C 6.28125 2.175781 6.847656 3.457031 7.953125 4.53125 C 9.097656 5.644531 10.539062 6.203125 12.28125 6.203125 L 12.1875 8.515625 C 11.09375 8.515625 10.007812 8.304688 8.9375 7.890625 C 7.863281 7.484375 6.941406 6.90625 6.171875 6.15625 C 4.554688 4.582031 3.722656 2.722656 3.671875 0.578125 C 3.617188 -1.554688 4.359375 -3.414062 5.890625 -5 C 7.410156 -6.550781 9.25 -7.316406 11.40625 -7.296875 C 13.5625 -7.273438 15.445312 -6.476562 17.0625 -4.90625 Z M 17.0625 -4.90625 "/></g></g></g><g fill="#000000" fill-opacity="1"><g transform="translate(313.73291, 100.178826)"><g><path d="M 2.734375 3.71875 L 1.1875 1.625 L 13.546875 -7.46875 L 15.09375 -5.375 Z M 2.734375 3.71875 "/></g></g></g><g fill="#000000" fill-opacity="1"><g transform="translate(326.029329, 118.307291)"><g><path d="M 13.171875 -3.09375 C 15.203125 -2.351562 16.726562 -0.960938 17.75 1.078125 C 18.769531 3.128906 18.960938 5.1875 18.328125 7.25 C 17.703125 9.320312 16.410156 10.84375 14.453125 11.8125 C 12.492188 12.789062 10.492188 12.910156 8.453125 12.171875 C 6.410156 11.429688 4.878906 10.035156 3.859375 7.984375 C 2.835938 5.941406 2.648438 3.882812 3.296875 1.8125 C 3.941406 -0.25 5.242188 -1.765625 7.203125 -2.734375 C 9.160156 -3.710938 11.148438 -3.832031 13.171875 -3.09375 Z M 15.6875 2.140625 C 15.007812 0.785156 13.957031 -0.144531 12.53125 -0.65625 C 11.113281 -1.164062 9.722656 -1.082031 8.359375 -0.40625 C 7.003906 0.269531 6.09375 1.332031 5.625 2.78125 C 5.164062 4.226562 5.269531 5.625 5.9375 6.96875 C 6.613281 8.320312 7.664062 9.238281 9.09375 9.71875 C 10.519531 10.207031 11.910156 10.113281 13.265625 9.4375 C 14.628906 8.757812 15.539062 7.707031 16 6.28125 C 16.457031 4.863281 16.351562 3.484375 15.6875 2.140625 Z M 15.6875 2.140625 "/></g></g></g><g fill="#000000" fill-opacity="1"><g transform="translate(339.220806, 148.285809)"><g><path d="M 3.90625 14.828125 L 3.25 12.359375 L 11.8125 1.65625 L 1.171875 4.453125 L 0.515625 1.953125 L 15.359375 -1.953125 L 16 0.5 L 7.421875 11.265625 L 18.09375 8.453125 L 18.75 10.921875 Z M 3.90625 14.828125 "/></g></g></g><g fill="#000000" fill-opacity="1"><g transform="translate(345.914785, 180.019059)"><g><path d="M 13.796875 12.125 L 13.28125 3.765625 L 9.15625 4.03125 L 9.625 11.5 L 7.296875 11.65625 L 6.828125 4.1875 L 2.625 4.453125 L 3.15625 13.0625 L 0.828125 13.203125 L 0.125 2.015625 L 15.4375 1.046875 L 16.125 11.984375 Z M 13.796875 12.125 "/></g></g></g><g fill="#000000" fill-opacity="1"><g transform="translate(346.358067, 209.563852)"><g><path d="M 14.5 8.859375 C 14.257812 10.828125 13.523438 12.539062 12.296875 14 L 10.15625 12.671875 C 11.28125 11.234375 11.925781 9.800781 12.09375 8.375 C 12.1875 7.601562 12.125 6.976562 11.90625 6.5 C 11.6875 6.019531 11.320312 5.75 10.8125 5.6875 C 10.3125 5.632812 9.859375 5.785156 9.453125 6.140625 C 9.046875 6.503906 8.722656 6.984375 8.484375 7.578125 C 8.242188 8.179688 7.953125 8.820312 7.609375 9.5 C 7.273438 10.175781 6.925781 10.800781 6.5625 11.375 C 6.207031 11.945312 5.703125 12.394531 5.046875 12.71875 C 4.398438 13.039062 3.648438 13.148438 2.796875 13.046875 C 1.460938 12.890625 0.460938 12.226562 -0.203125 11.0625 C -0.878906 9.90625 -1.113281 8.476562 -0.90625 6.78125 C -0.769531 5.613281 -0.421875 4.507812 0.140625 3.46875 C 0.710938 2.4375 1.421875 1.5625 2.265625 0.84375 L 4.34375 2.21875 C 3.53125 2.90625 2.878906 3.6875 2.390625 4.5625 C 1.898438 5.4375 1.601562 6.289062 1.5 7.125 C 1.394531 8.019531 1.472656 8.738281 1.734375 9.28125 C 1.992188 9.820312 2.414062 10.125 3 10.1875 C 3.53125 10.25 4 10.097656 4.40625 9.734375 C 4.8125 9.378906 5.132812 8.90625 5.375 8.3125 C 5.613281 7.71875 5.894531 7.078125 6.21875 6.390625 C 6.539062 5.710938 6.867188 5.085938 7.203125 4.515625 C 7.546875 3.941406 8.039062 3.484375 8.6875 3.140625 C 9.332031 2.804688 10.082031 2.691406 10.9375 2.796875 C 12.21875 2.953125 13.179688 3.582031 13.828125 4.6875 C 14.472656 5.789062 14.695312 7.179688 14.5 8.859375 Z M 14.5 8.859375 "/></g></g></g></svg>